<?xml version="1.0" standalone="no"?><!DOCTYPE svg PUBLIC "-//W3C//DTD SVG 1.1//EN" "http://www.w3.org/Graphics/SVG/1.1/DTD/svg11.dtd"><svg class="icon" width="200px" height="200.00px" viewBox="0 0 1024 1024" version="1.1" xmlns="http://www.w3.org/2000/svg"><path d="M355.555556 398.222222h-113.777778a56.888889 56.888889 0 0 0-56.888889 56.888889v284.444445a56.888889 56.888889 0 0 0 56.888889 56.888888h113.777778a56.888889 56.888889 0 0 0 56.888888-56.888888V455.111111a56.888889 56.888889 0 0 0-56.888888-56.888889z m0 327.111111a14.222222 14.222222 0 0 1-14.222223 14.222223H256a14.222222 14.222222 0 0 1-14.222222-14.222223v-256A14.222222 14.222222 0 0 1 256 455.111111h85.333333a14.222222 14.222222 0 0 1 14.222223 14.222222z" fill="#d81e06" /><path d="M611.555556 227.555556h-199.111112a56.888889 56.888889 0 0 0-56.888888 56.888888v455.111112a56.888889 56.888889 0 0 0 56.888888 56.888888h199.111112a56.888889 56.888889 0 0 0 56.888888-56.888888V284.444444a56.888889 56.888889 0 0 0-56.888888-56.888888z m0 497.777777a14.222222 14.222222 0 0 1-14.222223 14.222223h-170.666666a14.222222 14.222222 0 0 1-14.222223-14.222223v-426.666666a14.222222 14.222222 0 0 1 14.222223-14.222223h170.666666a14.222222 14.222222 0 0 1 14.222223 14.222223z" fill="#d81e06" /><path d="M782.222222 398.222222h-113.777778a56.888889 56.888889 0 0 0-56.888888 56.888889v284.444445a56.888889 56.888889 0 0 0 56.888888 56.888888h113.777778a56.888889 56.888889 0 0 0 56.888889-56.888888V455.111111a56.888889 56.888889 0 0 0-56.888889-56.888889z m0 327.111111a14.222222 14.222222 0 0 1-14.222222 14.222223h-85.333333a14.222222 14.222222 0 0 1-14.222223-14.222223v-256a14.222222 14.222222 0 0 1 14.222223-14.222222h85.333333a14.222222 14.222222 0 0 1 14.222222 14.222222zM510.577778 505.173333v-103.253333h-36.693334v-25.031111h3.128889a54.328889 54.328889 0 0 0 30.72-7.111111 28.444444 28.444444 0 0 0 11.377778-21.902222h31.288889v157.013333z" fill="#d81e06" /></svg>